# xmcd
#
# Track frame offsets:
#	150
#	19569
#	35604
#	55360
#	72861
#	93658
#	114677
#	133419
#	150032
#	169451
#	185480
#	205139
#	222575
#	243377
#	264415
#	283102
#
# Disc length: 4085 seconds
#
# Revision: 0
# Processed by: cddbd v1.5.2PL0 Copyright (c) Steve Scherf et al.
# Submitted via: audiograbber 1.83.01
#
DISCID=f20ff310
DTITLE=Nashville Star Karaoke (SC) - Best Male Country hits Vol. 2
DYEAR=2004
DGENRE=Country
TTITLE0=Only in America [Radio Version] - Brooks and Dunn
TTITLE1=Three Wooden Crosses [Stereo Performance Track] - Randy Travis
TTITLE2=I Can Only Imagine [Stereo Performance Track] - Mercyme
TTITLE3=One More Day [Stereo Performance Track] - Diamond Rio
TTITLE4=American Soldier [Stereo Performance Track] - Toby Keith
TTITLE5=Letters from Home [Stereo Performance Track] - John Michael Montgomery
TTITLE6=Have You Forgotten? [Stereo Performance Track] - Daryl Worley
TTITLE7=Courtesy of the Red, White and Blue (The Angry American) [Stereo Perfor
TTITLE7=Toby Keith
TTITLE8=Only in America [Radio Version] Vocal Demonstration - Brooks and Dunn
TTITLE9=Three Wooden Crosses [Vocal Demonstration Track] - Randy Travis
TTITLE10=I Can Only Imagine [Vocal Demonstration Track] - Mercyme
TTITLE11=One More Day [Vocal Demonstration Track] - Diamond Rio
TTITLE12=American Soldier [Vocal Demonstration Track] - Toby Keith
TTITLE13=Letters from Home [Vocal Demonstration Track] - John Michael Montgomer
TTITLE13=y
TTITLE14=Have You Forgotten? [Vocal Demonstration Track] - Daryl Worley
TTITLE15=Courtesy of the Red, White and Blue (The Angry American) [Vocal Demons
TTITLE15=t - Toby Keith
EXTD=
EXTT0=
EXTT1=
EXTT2=
EXTT3=
EXTT4=
EXTT5=
EXTT6=
EXTT7=
EXTT8=
EXTT9=
EXTT10=
EXTT11=
EXTT12=
EXTT13=
EXTT14=
EXTT15=
PLAYORDER=
